<svg width="64" height="64" viewBox="0 0 64 64" fill="none" xmlns="http://www.w3.org/2000/svg">
<rect width="64" height="64" rx="8" fill="#F5841F" fill-opacity="0.12"/>
<path d="M51.0728 13L33.9092 25.6999L37.1009 18.2154L51.0728 13Z" fill="#E17726"/>
<path d="M12.9668 13.0149L26.9013 18.2164L29.932 25.799L12.9668 13.0149Z" fill="#E27625"/>
<path d="M44.1656 40.0091L51.7516 40.1534L49.1004 49.16L39.8438 46.6114L44.1656 40.0091Z" fill="#E27625"/>
<path d="M19.8341 40.0091L24.1399 46.6114L14.8988 49.1602L12.2637 40.1534L19.8341 40.0091Z" fill="#E27625"/>
<path d="M29.5203 23.8674L29.8304 33.8805L20.5537 33.4584L23.1924 29.4776L23.2258 29.4392L29.5203 23.8674Z" fill="#E27625"/>
<path d="M34.3831 23.7558L40.7737 29.4396L40.8067 29.4777L43.4455 33.4585L34.1709 33.8805L34.3831 23.7558Z" fill="#E27625"/>
<path d="M24.4115 40.0381L29.4768 43.9848L23.5928 46.8257L24.4115 40.0381Z" fill="#E27625"/>
<path d="M39.5893 40.0375L40.391 46.8257L34.5234 43.9846L39.5893 40.0375Z" fill="#E27625"/>
<path d="M34.6523 43.6128L40.6066 46.4959L35.0679 49.1282L35.1255 47.3884L34.6523 43.6128Z" fill="#D5BFB2"/>
<path d="M29.3458 43.6141L28.8913 47.3599L28.9286 49.1261L23.377 46.4959L29.3458 43.6141Z" fill="#D5BFB2"/>
<path d="M27.6263 35.1873L29.1822 38.4573L23.8848 36.9055L27.6263 35.1873Z" fill="#233447"/>
<path d="M36.3739 35.1877L40.133 36.9054L34.8184 38.4568L36.3739 35.1877Z" fill="#233447"/>
<path d="M24.8169 40.0047L23.9606 47.0422L19.3711 40.1586L24.8169 40.0047Z" fill="#CC6228"/>
<path d="M39.1836 40.0048L44.6296 40.1586L40.0228 47.0424L39.1836 40.0048Z" fill="#CC6228"/>
<path d="M43.5799 33.0605L39.6165 37.0998L36.5608 35.7033L35.0978 38.7789L34.1387 33.4901L43.5799 33.0605Z" fill="#CC6228"/>
<path d="M20.418 33.0605L29.8608 33.4901L28.9017 38.779L27.4384 35.7037L24.3988 37.0998L20.418 33.0605Z" fill="#CC6228"/>
<path d="M20.1504 32.2316L24.6345 36.7818L24.7899 41.2738L20.1504 32.2316Z" fill="#E27525"/>
<path d="M43.8538 32.2234L39.2061 41.2817L39.381 36.7817L43.8538 32.2234Z" fill="#E27525"/>
<path d="M29.6412 32.5087L29.8217 33.6446L30.2676 36.4745L29.9809 45.1659L28.6254 38.184L28.625 38.1118L29.6412 32.5087Z" fill="#E27525"/>
<path d="M34.3562 32.493L35.3751 38.1118L35.3747 38.184L34.0158 45.1834L33.962 43.4327L33.75 36.423L34.3562 32.493Z" fill="#E27525"/>
<path d="M39.7797 36.6009L39.628 40.5037L34.8977 44.1893L33.9414 43.5136L35.0133 37.9924L39.7797 36.6009Z" fill="#F5841F"/>
<path d="M24.2373 36.601L28.9873 37.9926L30.0591 43.5136L29.1029 44.1892L24.3723 40.5034L24.2373 36.601Z" fill="#F5841F"/>
<path d="M22.4717 45.634L28.5236 48.5015L28.4979 47.277L29.0043 46.8326H34.994L35.5187 47.2755L35.48 48.4991L41.4935 45.6413L38.5673 48.0593L35.0289 50.4896H28.9558L25.4197 48.0494L22.4717 45.634Z" fill="#C0AC9D"/>
<path d="M34.2191 43.2312L35.0748 43.8356L35.5763 47.8363L34.8506 47.2236H29.1513L28.4395 47.8487L28.9244 43.8359L29.7804 43.2312H34.2191Z" fill="#161616"/>
<path d="M49.9395 13.3515L51.9998 19.5324L50.7131 25.7818L51.6293 26.4887L50.3895 27.4346L51.3213 28.1542L50.0875 29.2779L50.8449 29.8264L48.8347 32.1742L40.5894 29.7735L40.5179 29.7352L34.5762 24.7229L49.9395 13.3515Z" fill="#763E1A"/>
<path d="M14.0603 13.3515L29.4237 24.7229L23.4819 29.7352L23.4105 29.7735L15.1651 32.1742L13.1549 29.8264L13.9118 29.2782L12.6785 28.1542L13.6085 27.4353L12.3502 26.4867L13.301 25.7795L12 19.5326L14.0603 13.3515Z" fill="#763E1A"/>
<path d="M40.1861 29.2485L48.9226 31.7921L51.7609 40.5398L44.2728 40.5398L39.1133 40.6049L42.8655 33.2911L40.1861 29.2485Z" fill="#F5841F"/>
<path d="M23.8139 29.2485L21.134 33.2911L24.8867 40.6049L19.7297 40.5398H12.2549L15.0773 31.7921L23.8139 29.2485Z" fill="#F5841F"/>
<path d="M37.5283 18.1737L35.0847 24.7735L34.5661 33.6893L34.3677 36.4837L34.352 43.6224H29.6471L29.6318 36.4971L29.4327 33.6868L28.9139 24.7735L26.4707 18.1737H37.5283Z" fill="#F5841F"/>
</svg>
