<svg width="64" height="64" viewBox="0 0 64 64" fill="none" xmlns="http://www.w3.org/2000/svg">
<rect width="64" height="64" rx="8" fill="#551BF9" fill-opacity="0.12"/>
<path d="M32 52C43.0457 52 52 43.0457 52 32C52 20.9543 43.0457 12 32 12C20.9543 12 12 20.9543 12 32C12 43.0457 20.9543 52 32 52Z" fill="url(#paint0_linear_245_24493)"/>
<path d="M46.3325 32.2555H42.8017C42.8017 25.0314 36.9713 19.1777 29.7703 19.1777C22.6391 19.1777 16.8319 24.8688 16.6925 32C16.5531 39.2938 23.4289 45.6353 30.7459 45.6353H31.6751C38.1327 45.6353 46.797 40.5947 48.1443 34.4623C48.3534 33.4634 47.703 32.511 46.7041 32.302C46.588 32.2555 46.4718 32.2555 46.3325 32.2555ZM24.4974 32.5807C24.4974 33.5563 23.7076 34.3229 22.732 34.3229C21.7564 34.3229 20.9898 33.5331 20.9898 32.5807V29.7468C20.9898 28.7712 21.7796 28.0046 22.7552 28.0046C23.7308 28.0046 24.4974 28.7944 24.4974 29.7468V32.5807ZM30.5833 32.5807C30.5833 33.5563 29.7936 34.3229 28.8179 34.3229C27.8423 34.3229 27.0758 33.5331 27.0758 32.5807V29.7468C27.0758 28.7712 27.8656 28.0046 28.8412 28.0046C29.8168 28.0046 30.5833 28.7944 30.5833 29.7468V32.5807Z" fill="url(#paint1_linear_245_24493)"/>
<defs>
<linearGradient id="paint0_linear_245_24493" x1="32.0093" y1="12" x2="32.0093" y2="52.0186" gradientUnits="userSpaceOnUse">
<stop stop-color="#534BB1"/>
<stop offset="1" stop-color="#551BF9"/>
</linearGradient>
<linearGradient id="paint1_linear_245_24493" x1="32.4356" y1="19.2381" x2="32.4356" y2="45.633" gradientUnits="userSpaceOnUse">
<stop stop-color="white"/>
<stop offset="1" stop-color="white" stop-opacity="0.82"/>
</linearGradient>
</defs>
</svg>
