<svg width="64" height="64" viewBox="0 0 64 64" fill="none" xmlns="http://www.w3.org/2000/svg">
<rect width="64" height="64" rx="8" fill="#3375BB" fill-opacity="0.12"/>
<g clip-path="url(#clip0_245_24497)">
<path d="M32 52C43.0457 52 52 43.0457 52 32C52 20.9543 43.0457 12 32 12C20.9543 12 12 20.9543 12 32C12 43.0457 20.9543 52 32 52Z" fill="#3375BB"/>
<path fill-rule="evenodd" clip-rule="evenodd" d="M41.8156 22.0914C41.9878 22.0917 42.1583 22.1261 42.3171 22.1927C42.4759 22.2593 42.62 22.3567 42.7409 22.4794C42.8618 22.602 42.9572 22.7475 43.0215 22.9073C43.0858 23.067 43.1178 23.238 43.1156 23.4102C43.0532 27.1362 42.9094 29.9862 42.6406 32.2422C42.3786 34.4982 41.9844 36.1742 41.3906 37.5302C40.9906 38.4362 40.4968 39.1862 39.9166 39.8242C39.1346 40.6682 38.2426 41.2806 37.2666 41.8622C36.8498 42.1114 36.4164 42.3576 35.9626 42.6158C34.9926 43.1666 33.9266 43.7724 32.7166 44.5818C32.5032 44.7253 32.2519 44.802 31.9948 44.802C31.7376 44.802 31.4863 44.7253 31.273 44.5818C30.045 43.7636 28.965 43.1498 27.987 42.5958C27.7694 42.4725 27.5566 42.3511 27.3486 42.2318C26.2046 41.5698 25.1746 40.9378 24.2746 40.0258C23.6746 39.4258 23.1558 38.6938 22.7426 37.8258C22.1806 36.6638 21.7986 35.2578 21.5186 33.4378C21.14 31.004 20.954 27.822 20.884 23.41C20.8812 23.2383 20.9123 23.0677 20.9757 22.9081C21.0391 22.7485 21.1334 22.603 21.2532 22.48C21.5003 22.2331 21.835 22.0938 22.1844 22.0924H22.722C24.378 22.0986 28.034 21.9362 31.196 19.4744C31.4242 19.2982 31.7045 19.2026 31.9929 19.2026C32.2812 19.2026 32.5615 19.2982 32.7898 19.4744C35.9518 21.9364 39.6078 22.1004 41.2718 22.0924M38.9098 36.6984C39.316 35.861 39.6538 34.7044 39.9098 33.0424C40.216 31.0544 40.4036 28.3544 40.4918 24.6804C38.5418 24.624 35.1918 24.249 31.9978 22.0984C28.804 24.242 25.454 24.616 23.51 24.68C23.5788 27.718 23.7162 30.08 23.935 31.936C24.185 34.048 24.541 35.48 24.985 36.486C25.2788 37.1548 25.6038 37.636 25.991 38.062C26.5098 38.6308 27.166 39.0994 28.059 39.638C28.4298 39.86 28.839 40.0918 29.283 40.344C30.0758 40.7926 30.983 41.306 31.995 41.95C32.9892 41.316 33.883 40.808 34.667 40.362C34.9032 40.2276 35.129 40.1 35.3448 39.9746C36.4448 39.3434 37.2568 38.8184 37.8628 38.2066C38.272 37.786 38.604 37.33 38.91 36.698" fill="white"/>
</g>
<defs>
<clipPath id="clip0_245_24497">
<rect width="40" height="40" fill="white" transform="translate(12 12)"/>
</clipPath>
</defs>
</svg>
