<svg width="64" height="64" viewBox="0 0 64 64" fill="none" xmlns="http://www.w3.org/2000/svg">
<rect width="64" height="64" rx="8" fill="#006FFF" fill-opacity="0.12"/>
<path fill-rule="evenodd" clip-rule="evenodd" d="M32 12C43.0469 12 52 20.9531 52 32C52 43.0469 43.0469 52 32 52C20.9531 52 12 43.0469 12 32C12 20.9531 20.9531 12 32 12Z" fill="url(#paint0_radial_245_24494)"/>
<path d="M24.7109 27.4453C28.7344 23.5156 35.2656 23.5156 39.2891 27.4453L39.7734 27.9219C39.9766 28.1172 39.9766 28.4375 39.7734 28.6328L38.1172 30.25C38.0156 30.3516 37.8516 30.3516 37.75 30.25L37.0859 29.6016C34.2734 26.8594 29.7266 26.8594 26.9141 29.6016L26.2031 30.2969C26.1016 30.3984 25.9375 30.3984 25.8359 30.2969L24.1797 28.6797C23.9766 28.4844 23.9766 28.1641 24.1797 27.9687L24.7109 27.4453ZM42.7188 30.7891L44.1953 32.2266C44.3984 32.4219 44.3984 32.7422 44.1953 32.9375L37.5469 39.4297C37.3438 39.625 37.0156 39.625 36.8203 39.4297L32.1016 34.8203C32.0547 34.7734 31.9688 34.7734 31.9219 34.8203L27.2031 39.4297C27 39.625 26.6719 39.625 26.4766 39.4297L19.8047 32.9375C19.6016 32.7422 19.6016 32.4219 19.8047 32.2266L21.2812 30.7891C21.4844 30.5938 21.8125 30.5938 22.0078 30.7891L26.7266 35.3984C26.7734 35.4453 26.8594 35.4453 26.9062 35.3984L31.625 30.7891C31.8281 30.5938 32.1562 30.5938 32.3516 30.7891L37.0703 35.3984C37.1172 35.4453 37.2031 35.4453 37.25 35.3984L41.9688 30.7891C42.1875 30.5938 42.5156 30.5938 42.7188 30.7891Z" fill="white"/>
<defs>
<radialGradient id="paint0_radial_245_24494" cx="0" cy="0" r="1" gradientUnits="userSpaceOnUse" gradientTransform="translate(12.0001 32.0006) scale(40)">
<stop stop-color="#5D9DF6"/>
<stop offset="1" stop-color="#006FFF"/>
</radialGradient>
</defs>
</svg>
