<svg width="244" height="32" viewBox="0 0 244 32" fill="none" xmlns="http://www.w3.org/2000/svg">
<path d="M51.1319 1.82662V28.3074H53.2088V29.8651H49.0549V1.82662H51.1319Z" fill="#0062FF"/>
<path d="M62.7626 6.4997H60.6857V15.8459H62.7626V17.4035H60.6857V28.3074H62.7626V29.8651H58.6088V4.94201H62.7626V6.4997Z" fill="#0062FF"/>
<path d="M73.8742 29.8651H72.3165L69.4607 15.3266V29.8651H67.6434V4.94201H69.2011L72.0731 19.9997V4.94201H73.8742V29.8651Z" fill="#0062FF"/>
<path d="M83.428 6.98648C83.428 6.78095 83.3307 6.65114 83.136 6.59706C82.9521 6.53215 82.3571 6.4997 81.3511 6.4997V28.3074C82.3571 28.3074 82.9521 28.2749 83.136 28.21C83.3307 28.1451 83.428 28.0099 83.428 27.8044V6.98648ZM85.5049 27.6746C85.5049 28.2263 85.386 28.6535 85.148 28.9564C84.9208 29.2485 84.5801 29.4648 84.1257 29.6055C83.9094 29.6704 83.6444 29.7245 83.3307 29.7677C83.017 29.8002 82.5843 29.8272 82.0326 29.8489C81.4809 29.8597 80.9941 29.8651 80.5723 29.8651H79.2742V4.94201C79.7177 4.94201 80.1612 4.94742 80.6047 4.95823C81.059 4.95823 81.5188 4.96364 81.9839 4.97446C82.9358 4.99609 83.639 5.06641 84.0933 5.1854C84.5584 5.3152 84.91 5.52614 85.148 5.81821C85.386 6.09946 85.5049 6.50511 85.5049 7.03516V27.6746Z" fill="#0062FF"/>
<path d="M94.5396 4.94201H96.6165V27.5285C96.6165 27.9829 96.5354 28.3777 96.3731 28.713C96.2108 29.0376 95.9945 29.308 95.7241 29.5243C95.4536 29.7299 95.1453 29.8813 94.7992 29.9787C94.4638 30.076 94.1177 30.1247 93.7607 30.1247C93.4037 30.1247 93.0522 30.076 92.706 29.9787C92.3707 29.8813 92.0678 29.7299 91.7974 29.5243C91.5269 29.308 91.3106 29.0376 91.1483 28.713C90.9861 28.3777 90.905 27.9829 90.905 27.5285V4.94201H92.9819V27.5285C92.9819 27.918 93.063 28.1884 93.2253 28.3398C93.3875 28.4913 93.566 28.567 93.7607 28.567C93.9554 28.567 94.1339 28.4913 94.2962 28.3398C94.4584 28.1884 94.5396 27.918 94.5396 27.5285V4.94201Z" fill="#0062FF"/>
<path d="M108.247 15.8459C108.247 16.4949 108.128 16.9979 107.89 17.3549C107.652 17.701 107.339 17.9552 106.949 18.1175C106.56 18.2797 106.116 18.3771 105.619 18.4096C105.121 18.4312 104.613 18.442 104.093 18.442V29.8651H102.016V4.94201H104.613C105.532 4.94201 106.235 5.02855 106.722 5.20162C107.22 5.3747 107.582 5.59105 107.809 5.85066C108.036 6.11028 108.166 6.39153 108.199 6.69441C108.231 6.9973 108.247 7.27855 108.247 7.53816V15.8459ZM106.17 7.53816C106.17 7.27855 106.132 7.07843 106.057 6.9378C105.992 6.79718 105.878 6.69441 105.716 6.62951C105.554 6.5646 105.337 6.52674 105.067 6.51593C104.807 6.50511 104.483 6.4997 104.093 6.4997V16.8843C104.353 16.8843 104.607 16.8789 104.856 16.8681C105.105 16.8465 105.327 16.787 105.521 16.6896C105.716 16.5922 105.873 16.4408 105.992 16.2353C106.111 16.0189 106.17 15.716 106.17 15.3266V7.53816Z" fill="#0062FF"/>
<path d="M115.205 27.2689V29.8651H112.609V27.2689H115.205Z" fill="#0062FF"/>
<path d="M128.102 3.38431H125.505V13.7689H127.582V15.3266H125.505V29.8651H123.429V1.82662H128.102V3.38431Z" fill="#D6BBFB"/>
<path d="M135.319 4.94201V29.8651H133.242V4.94201H135.319Z" fill="#D6BBFB"/>
<path d="M147.209 29.8651H145.652L142.796 15.3266V29.8651H140.979V4.94201H142.536L145.408 19.9997V4.94201H147.209V29.8651Z" fill="#D6BBFB"/>
<path d="M158.321 29.8651H156.244L155.919 24.4781H154.475L154.167 29.8651H152.09L154.167 4.94201H156.244L158.321 29.8651ZM155.806 22.7906L155.205 10.1343L154.589 22.7906H155.806Z" fill="#D6BBFB"/>
<path d="M169.432 29.8651H167.875L165.019 15.3266V29.8651H163.202V4.94201H164.759L167.631 19.9997V4.94201H169.432V29.8651Z" fill="#D6BBFB"/>
<path d="M181.063 15.3266H178.986V7.27855C178.986 6.91076 178.894 6.65114 178.71 6.4997C178.527 6.33744 178.316 6.25631 178.078 6.25631C177.937 6.25631 177.796 6.28335 177.656 6.33744C177.526 6.38071 177.402 6.45102 177.283 6.54838C177.174 6.63492 177.082 6.74309 177.007 6.8729C176.942 6.99189 176.909 7.1271 176.909 7.27855V27.5285C176.909 27.68 176.942 27.8206 177.007 27.9504C177.082 28.0802 177.174 28.1938 177.283 28.2912C177.402 28.3777 177.526 28.448 177.656 28.5021C177.796 28.5454 177.937 28.567 178.078 28.567C178.316 28.567 178.527 28.4859 178.71 28.3236C178.894 28.1614 178.986 27.8963 178.986 27.5285V18.442H181.063V27.5285C181.063 27.9612 180.971 28.3453 180.787 28.6806C180.603 29.0051 180.365 29.2809 180.073 29.5081C179.781 29.7245 179.446 29.8867 179.067 29.9949C178.689 30.1139 178.305 30.1734 177.915 30.1734C177.526 30.1734 177.147 30.1193 176.78 30.0111C176.412 29.9029 176.082 29.7407 175.79 29.5243C175.498 29.2972 175.265 29.0213 175.092 28.6968C174.919 28.3615 174.832 27.9721 174.832 27.5285V7.27855C174.832 6.84585 174.919 6.46184 175.092 6.1265C175.276 5.79117 175.514 5.51532 175.806 5.29898C176.098 5.08263 176.433 4.92037 176.812 4.8122C177.191 4.69321 177.575 4.63371 177.964 4.63371C178.353 4.63371 178.732 4.6878 179.1 4.79597C179.468 4.90415 179.798 5.07181 180.09 5.29898C180.382 5.51532 180.614 5.79117 180.787 6.1265C180.971 6.45102 181.063 6.83504 181.063 7.27855V15.3266Z" fill="#D6BBFB"/>
<path d="M190.617 6.4997H188.54V15.8459H190.617V17.4035H188.54V28.3074H190.617V29.8651H186.463V4.94201H190.617V6.4997Z" fill="#D6BBFB"/>
<path fill-rule="evenodd" clip-rule="evenodd" d="M34.1099 0H7.38462L0 19.3407H8.33087L11.956 9.84616H30.3504L34.1099 0Z" fill="#0062FF"/>
<path d="M14.4176 12.6593H41.1428L33.7582 32H7.03296L14.4176 12.6593Z" fill="#D6BBFB"/>
</svg>
